<?xml version="1.0" encoding="UTF-8" standalone="no"?><svg xmlns="http://www.w3.org/2000/svg" xmlns:xlink="http://www.w3.org/1999/xlink" contentScriptType="application/ecmascript" contentStyleType="text/css" height="378px" preserveAspectRatio="none" style="width:644px;height:378px;background:#FFFFFF;" version="1.1" viewBox="0 0 644 378" width="644px" zoomAndPan="magnify"><defs><filter height="300%" id="f1m9nmnnqjlwvf" width="300%" x="-1" y="-1"><feGaussianBlur result="blurOut" stdDeviation="2.0"/><feColorMatrix in="blurOut" result="blurOut2" type="matrix" values="0 0 0 0 0 0 0 0 0 0 0 0 0 0 0 0 0 0 .4 0"/><feOffset dx="4.0" dy="4.0" in="blurOut2" result="blurOut3"/><feBlend in="SourceGraphic" in2="blurOut3" mode="normal"/></filter></defs><g><line style="stroke:#A80036;stroke-width:1.0;stroke-dasharray:5.0,5.0;" x1="128" x2="128" y1="40.2969" y2="335.4922"/><line style="stroke:#A80036;stroke-width:1.0;stroke-dasharray:5.0,5.0;" x1="233" x2="233" y1="40.2969" y2="335.4922"/><line style="stroke:#A80036;stroke-width:1.0;stroke-dasharray:5.0,5.0;" x1="321.5" x2="321.5" y1="40.2969" y2="335.4922"/><line style="stroke:#A80036;stroke-width:1.0;stroke-dasharray:5.0,5.0;" x1="411" x2="411" y1="40.2969" y2="335.4922"/><line style="stroke:#A80036;stroke-width:1.0;stroke-dasharray:5.0,5.0;" x1="526" x2="526" y1="40.2969" y2="335.4922"/><line style="stroke:#A80036;stroke-width:1.0;stroke-dasharray:5.0,5.0;" x1="601.5" x2="601.5" y1="40.2969" y2="335.4922"/><rect fill="#FEFECE" filter="url(#f1m9nmnnqjlwvf)" height="30.2969" style="stroke:#A80036;stroke-width:1.5;" width="54" x="99" y="5"/><text fill="#000000" font-family="sans-serif" font-size="14" lengthAdjust="spacing" textLength="40" x="106" y="24.9951">Stand</text><rect fill="#FEFECE" filter="url(#f1m9nmnnqjlwvf)" height="30.2969" style="stroke:#A80036;stroke-width:1.5;" width="54" x="99" y="334.4922"/><text fill="#000000" font-family="sans-serif" font-size="14" lengthAdjust="spacing" textLength="40" x="106" y="354.4873">Stand</text><rect fill="#FEFECE" filter="url(#f1m9nmnnqjlwvf)" height="30.2969" style="stroke:#A80036;stroke-width:1.5;" width="42" x="210" y="5"/><text fill="#000000" font-family="sans-serif" font-size="14" lengthAdjust="spacing" textLength="28" x="217" y="24.9951">Port</text><rect fill="#FEFECE" filter="url(#f1m9nmnnqjlwvf)" height="30.2969" style="stroke:#A80036;stroke-width:1.5;" width="42" x="210" y="334.4922"/><text fill="#000000" font-family="sans-serif" font-size="14" lengthAdjust="spacing" textLength="28" x="217" y="354.4873">Port</text><rect fill="#FEFECE" filter="url(#f1m9nmnnqjlwvf)" height="30.2969" style="stroke:#A80036;stroke-width:1.5;" width="41" x="299.5" y="5"/><text fill="#000000" font-family="sans-serif" font-size="14" lengthAdjust="spacing" textLength="27" x="306.5" y="24.9951">App</text><rect fill="#FEFECE" filter="url(#f1m9nmnnqjlwvf)" height="30.2969" style="stroke:#A80036;stroke-width:1.5;" width="41" x="299.5" y="334.4922"/><text fill="#000000" font-family="sans-serif" font-size="14" lengthAdjust="spacing" textLength="27" x="306.5" y="354.4873">App</text><rect fill="#FEFECE" filter="url(#f1m9nmnnqjlwvf)" height="30.2969" style="stroke:#A80036;stroke-width:1.5;" width="46" x="386" y="5"/><text fill="#000000" font-family="sans-serif" font-size="14" lengthAdjust="spacing" textLength="32" x="393" y="24.9951">User</text><rect fill="#FEFECE" filter="url(#f1m9nmnnqjlwvf)" height="30.2969" style="stroke:#A80036;stroke-width:1.5;" width="46" x="386" y="334.4922"/><text fill="#000000" font-family="sans-serif" font-size="14" lengthAdjust="spacing" textLength="32" x="393" y="354.4873">User</text><rect fill="#FEFECE" filter="url(#f1m9nmnnqjlwvf)" height="30.2969" style="stroke:#A80036;stroke-width:1.5;" width="62" x="493" y="5"/><text fill="#000000" font-family="sans-serif" font-size="14" lengthAdjust="spacing" textLength="48" x="500" y="24.9951">Bicycle</text><rect fill="#FEFECE" filter="url(#f1m9nmnnqjlwvf)" height="30.2969" style="stroke:#A80036;stroke-width:1.5;" width="62" x="493" y="334.4922"/><text fill="#000000" font-family="sans-serif" font-size="14" lengthAdjust="spacing" textLength="48" x="500" y="354.4873">Bicycle</text><rect fill="#FEFECE" filter="url(#f1m9nmnnqjlwvf)" height="30.2969" style="stroke:#A80036;stroke-width:1.5;" width="61" x="569.5" y="5"/><text fill="#000000" font-family="sans-serif" font-size="14" lengthAdjust="spacing" textLength="47" x="576.5" y="24.9951">History</text><rect fill="#FEFECE" filter="url(#f1m9nmnnqjlwvf)" height="30.2969" style="stroke:#A80036;stroke-width:1.5;" width="61" x="569.5" y="334.4922"/><text fill="#000000" font-family="sans-serif" font-size="14" lengthAdjust="spacing" textLength="47" x="576.5" y="354.4873">History</text><ellipse cx="7.5" cy="70.6797" rx="4" ry="4" style="stroke:#A80036;stroke-width:1.5;fill:none;"/><polygon fill="#A80036" points="116,67.4297,126,71.4297,116,75.4297,120,71.4297" style="stroke:#A80036;stroke-width:1.0;"/><line style="stroke:#A80036;stroke-width:1.0;" x1="12" x2="122" y1="71.4297" y2="71.4297"/><text fill="#000000" font-family="sans-serif" font-size="13" lengthAdjust="spacing" textLength="96" x="15" y="66.3638">QRコードの読取</text><polygon fill="#A80036" points="221,96.5625,231,100.5625,221,104.5625,225,100.5625" style="stroke:#A80036;stroke-width:1.0;"/><line style="stroke:#A80036;stroke-width:1.0;" x1="128" x2="227" y1="100.5625" y2="100.5625"/><text fill="#000000" font-family="sans-serif" font-size="13" lengthAdjust="spacing" textLength="78" x="135" y="95.4966">スタンド情報</text><polygon fill="#A80036" points="310,125.6953,320,129.6953,310,133.6953,314,129.6953" style="stroke:#A80036;stroke-width:1.0;"/><line style="stroke:#A80036;stroke-width:1.0;" x1="233" x2="316" y1="129.6953" y2="129.6953"/><text fill="#000000" font-family="sans-serif" font-size="13" lengthAdjust="spacing" textLength="65" x="240" y="124.6294">ポート情報</text><polygon fill="#A80036" points="399,154.8281,409,158.8281,399,162.8281,403,158.8281" style="stroke:#A80036;stroke-width:1.0;"/><line style="stroke:#A80036;stroke-width:1.0;" x1="322" x2="405" y1="158.8281" y2="158.8281"/><text fill="#000000" font-family="sans-serif" font-size="13" lengthAdjust="spacing" textLength="65" x="329" y="153.7622">利用者特定</text><polygon fill="#A80036" points="514,183.9609,524,187.9609,514,191.9609,518,187.9609" style="stroke:#A80036;stroke-width:1.0;"/><line style="stroke:#A80036;stroke-width:1.0;" x1="411" x2="520" y1="187.9609" y2="187.9609"/><text fill="#000000" font-family="sans-serif" font-size="13" lengthAdjust="spacing" textLength="91" x="418" y="182.895">自転車情報更新</text><polygon fill="#A80036" points="590,213.0938,600,217.0938,590,221.0938,594,217.0938" style="stroke:#A80036;stroke-width:1.0;"/><line style="stroke:#A80036;stroke-width:1.0;" x1="526" x2="596" y1="217.0938" y2="217.0938"/><text fill="#000000" font-family="sans-serif" font-size="13" lengthAdjust="spacing" textLength="52" x="533" y="212.0278">履歴追加</text><polygon fill="#A80036" points="139,242.2266,129,246.2266,139,250.2266,135,246.2266" style="stroke:#A80036;stroke-width:1.0;"/><line style="stroke:#A80036;stroke-width:1.0;" x1="133" x2="601" y1="246.2266" y2="246.2266"/><text fill="#000000" font-family="sans-serif" font-size="13" lengthAdjust="spacing" textLength="104" x="145" y="241.1606">スタンド解錠要求</text><line style="stroke:#A80036;stroke-width:1.0;" x1="128" x2="170" y1="275.3594" y2="275.3594"/><line style="stroke:#A80036;stroke-width:1.0;" x1="170" x2="170" y1="275.3594" y2="288.3594"/><line style="stroke:#A80036;stroke-width:1.0;" x1="129" x2="170" y1="288.3594" y2="288.3594"/><polygon fill="#A80036" points="139,284.3594,129,288.3594,139,292.3594,135,288.3594" style="stroke:#A80036;stroke-width:1.0;"/><text fill="#000000" font-family="sans-serif" font-size="13" lengthAdjust="spacing" textLength="91" x="135" y="270.2935">スタンドを解錠</text><ellipse cx="631" cy="316.7422" rx="4" ry="4" style="stroke:#A80036;stroke-width:1.5;fill:none;"/><polygon fill="#A80036" points="614,313.4922,624,317.4922,614,321.4922,618,317.4922" style="stroke:#A80036;stroke-width:1.0;"/><line style="stroke:#A80036;stroke-width:1.0;" x1="128" x2="620" y1="317.4922" y2="317.4922"/><text fill="#000000" font-family="sans-serif" font-size="13" lengthAdjust="spacing" textLength="78" x="135" y="312.4263">自転車を貸出</text><!--MD5=[614f0b9b353ab80a66416759fd97a27e]
@startuml
[o-> Stand:QRコードの読取
  Stand -> Port:スタンド情報
  Port -> App:ポート情報
  App -> User:利用者特定
  User -> Bicycle:自転車情報更新
  Bicycle -> History:履歴追加
  History -> Stand:スタンド解錠要求
  Stand -> Stand:スタンドを解錠
  Stand ->o]:自転車を貸出
@enduml

PlantUML version 1.2021.7(Sun May 23 12:40:07 UTC 2021)
(GPL source distribution)
Java Runtime: OpenJDK Runtime Environment
JVM: OpenJDK 64-Bit Server VM
Default Encoding: UTF-8
Language: en
Country: US
--></g></svg>