<?xml version="1.0" encoding="UTF-8" standalone="no"?><svg xmlns="http://www.w3.org/2000/svg" xmlns:xlink="http://www.w3.org/1999/xlink" contentScriptType="application/ecmascript" contentStyleType="text/css" height="324px" preserveAspectRatio="none" style="width:585px;height:324px;background:#FFFFFF;" version="1.1" viewBox="0 0 585 324" width="585px" zoomAndPan="magnify"><defs><filter height="300%" id="fogw7f4s8e4ss" width="300%" x="-1" y="-1"><feGaussianBlur result="blurOut" stdDeviation="2.0"/><feColorMatrix in="blurOut" result="blurOut2" type="matrix" values="0 0 0 0 0 0 0 0 0 0 0 0 0 0 0 0 0 0 .4 0"/><feOffset dx="4.0" dy="4.0" in="blurOut2" result="blurOut3"/><feBlend in="SourceGraphic" in2="blurOut3" mode="normal"/></filter></defs><g><!--MD5=[3fd616f346a44cd59a91eb10b19e157c]
class User--><rect codeLine="1" fill="#FEFECE" filter="url(#fogw7f4s8e4ss)" height="60.8047" id="User" style="stroke:#A80036;stroke-width:1.5;" width="76" x="269" y="7"/><ellipse cx="290.75" cy="23" fill="#ADD1B2" rx="11" ry="11" style="stroke:#A80036;stroke-width:1.0;"/><path d="M293.7188,28.6406 Q293.1406,28.9375 292.5,29.0781 Q291.8594,29.2344 291.1563,29.2344 Q288.6563,29.2344 287.3281,27.5938 Q286.0156,25.9375 286.0156,22.8125 Q286.0156,19.6875 287.3281,18.0313 Q288.6563,16.375 291.1563,16.375 Q291.8594,16.375 292.5,16.5313 Q293.1563,16.6875 293.7188,16.9844 L293.7188,19.7031 Q293.0938,19.125 292.5,18.8594 Q291.9063,18.5781 291.2813,18.5781 Q289.9375,18.5781 289.25,19.6563 Q288.5625,20.7188 288.5625,22.8125 Q288.5625,24.9063 289.25,25.9844 Q289.9375,27.0469 291.2813,27.0469 Q291.9063,27.0469 292.5,26.7813 Q293.0938,26.5 293.7188,25.9219 L293.7188,28.6406 Z " fill="#000000"/><text fill="#000000" font-family="sans-serif" font-size="12" lengthAdjust="spacing" textLength="29" x="306.25" y="27.1543">User</text><line style="stroke:#A80036;stroke-width:1.5;" x1="270" x2="344" y1="39" y2="39"/><rect fill="none" height="6" style="stroke:#C82930;stroke-width:1.0;" width="6" x="277" y="47"/><text fill="#000000" font-family="sans-serif" font-size="11" lengthAdjust="spacing" textLength="50" x="289" y="53.2104">point: int</text><line style="stroke:#A80036;stroke-width:1.5;" x1="270" x2="344" y1="59.8047" y2="59.8047"/><!--MD5=[91d4151b6d4c9a3d01b6d84b2458eece]
class CreditCard--><rect codeLine="4" fill="#FEFECE" filter="url(#fogw7f4s8e4ss)" height="48" id="CreditCard" style="stroke:#A80036;stroke-width:1.5;" width="98" x="7" y="141"/><ellipse cx="22" cy="157" fill="#ADD1B2" rx="11" ry="11" style="stroke:#A80036;stroke-width:1.0;"/><path d="M24.9688,162.6406 Q24.3906,162.9375 23.75,163.0781 Q23.1094,163.2344 22.4063,163.2344 Q19.9063,163.2344 18.5781,161.5938 Q17.2656,159.9375 17.2656,156.8125 Q17.2656,153.6875 18.5781,152.0313 Q19.9063,150.375 22.4063,150.375 Q23.1094,150.375 23.75,150.5313 Q24.4063,150.6875 24.9688,150.9844 L24.9688,153.7031 Q24.3438,153.125 23.75,152.8594 Q23.1563,152.5781 22.5313,152.5781 Q21.1875,152.5781 20.5,153.6563 Q19.8125,154.7188 19.8125,156.8125 Q19.8125,158.9063 20.5,159.9844 Q21.1875,161.0469 22.5313,161.0469 Q23.1563,161.0469 23.75,160.7813 Q24.3438,160.5 24.9688,159.9219 L24.9688,162.6406 Z " fill="#000000"/><text fill="#000000" font-family="sans-serif" font-size="12" lengthAdjust="spacing" textLength="66" x="36" y="161.1543">CreditCard</text><line style="stroke:#A80036;stroke-width:1.5;" x1="8" x2="104" y1="173" y2="173"/><line style="stroke:#A80036;stroke-width:1.5;" x1="8" x2="104" y1="181" y2="181"/><!--MD5=[e69084ab16b022bdbef99762ea85e9d6]
class Movie--><rect codeLine="5" fill="#FEFECE" filter="url(#fogw7f4s8e4ss)" height="48" id="Movie" style="stroke:#A80036;stroke-width:1.5;" width="67" x="157.5" y="262"/><ellipse cx="172.5" cy="278" fill="#ADD1B2" rx="11" ry="11" style="stroke:#A80036;stroke-width:1.0;"/><path d="M175.4688,283.6406 Q174.8906,283.9375 174.25,284.0781 Q173.6094,284.2344 172.9063,284.2344 Q170.4063,284.2344 169.0781,282.5938 Q167.7656,280.9375 167.7656,277.8125 Q167.7656,274.6875 169.0781,273.0313 Q170.4063,271.375 172.9063,271.375 Q173.6094,271.375 174.25,271.5313 Q174.9063,271.6875 175.4688,271.9844 L175.4688,274.7031 Q174.8438,274.125 174.25,273.8594 Q173.6563,273.5781 173.0313,273.5781 Q171.6875,273.5781 171,274.6563 Q170.3125,275.7188 170.3125,277.8125 Q170.3125,279.9063 171,280.9844 Q171.6875,282.0469 173.0313,282.0469 Q173.6563,282.0469 174.25,281.7813 Q174.8438,281.5 175.4688,280.9219 L175.4688,283.6406 Z " fill="#000000"/><text fill="#000000" font-family="sans-serif" font-size="12" lengthAdjust="spacing" textLength="35" x="186.5" y="282.1543">Movie</text><line style="stroke:#A80036;stroke-width:1.5;" x1="158.5" x2="223.5" y1="294" y2="294"/><line style="stroke:#A80036;stroke-width:1.5;" x1="158.5" x2="223.5" y1="302" y2="302"/><!--MD5=[6fa3e4350d44af662413ad1d54c020bd]
class Theater--><rect codeLine="6" fill="#FEFECE" filter="url(#fogw7f4s8e4ss)" height="48" id="Theater" style="stroke:#A80036;stroke-width:1.5;" width="81" x="266.5" y="262"/><ellipse cx="281.5" cy="278" fill="#ADD1B2" rx="11" ry="11" style="stroke:#A80036;stroke-width:1.0;"/><path d="M284.4688,283.6406 Q283.8906,283.9375 283.25,284.0781 Q282.6094,284.2344 281.9063,284.2344 Q279.4063,284.2344 278.0781,282.5938 Q276.7656,280.9375 276.7656,277.8125 Q276.7656,274.6875 278.0781,273.0313 Q279.4063,271.375 281.9063,271.375 Q282.6094,271.375 283.25,271.5313 Q283.9063,271.6875 284.4688,271.9844 L284.4688,274.7031 Q283.8438,274.125 283.25,273.8594 Q282.6563,273.5781 282.0313,273.5781 Q280.6875,273.5781 280,274.6563 Q279.3125,275.7188 279.3125,277.8125 Q279.3125,279.9063 280,280.9844 Q280.6875,282.0469 282.0313,282.0469 Q282.6563,282.0469 283.25,281.7813 Q283.8438,281.5 284.4688,280.9219 L284.4688,283.6406 Z " fill="#000000"/><text fill="#000000" font-family="sans-serif" font-size="12" lengthAdjust="spacing" textLength="49" x="295.5" y="282.1543">Theater</text><line style="stroke:#A80036;stroke-width:1.5;" x1="267.5" x2="346.5" y1="294" y2="294"/><line style="stroke:#A80036;stroke-width:1.5;" x1="267.5" x2="346.5" y1="302" y2="302"/><!--MD5=[a96594a83e2ecdc78cbf17c2ddf01934]
class Category--><rect codeLine="7" fill="#FEFECE" filter="url(#fogw7f4s8e4ss)" height="48" id="Category" style="stroke:#A80036;stroke-width:1.5;" width="88" x="140" y="141"/><ellipse cx="155" cy="157" fill="#ADD1B2" rx="11" ry="11" style="stroke:#A80036;stroke-width:1.0;"/><path d="M157.9688,162.6406 Q157.3906,162.9375 156.75,163.0781 Q156.1094,163.2344 155.4063,163.2344 Q152.9063,163.2344 151.5781,161.5938 Q150.2656,159.9375 150.2656,156.8125 Q150.2656,153.6875 151.5781,152.0313 Q152.9063,150.375 155.4063,150.375 Q156.1094,150.375 156.75,150.5313 Q157.4063,150.6875 157.9688,150.9844 L157.9688,153.7031 Q157.3438,153.125 156.75,152.8594 Q156.1563,152.5781 155.5313,152.5781 Q154.1875,152.5781 153.5,153.6563 Q152.8125,154.7188 152.8125,156.8125 Q152.8125,158.9063 153.5,159.9844 Q154.1875,161.0469 155.5313,161.0469 Q156.1563,161.0469 156.75,160.7813 Q157.3438,160.5 157.9688,159.9219 L157.9688,162.6406 Z " fill="#000000"/><text fill="#000000" font-family="sans-serif" font-size="12" lengthAdjust="spacing" textLength="56" x="169" y="161.1543">Category</text><line style="stroke:#A80036;stroke-width:1.5;" x1="141" x2="227" y1="173" y2="173"/><line style="stroke:#A80036;stroke-width:1.5;" x1="141" x2="227" y1="181" y2="181"/><!--MD5=[fd4cc6ff947ea09b9eb1ad6a2c099da8]
class Showing--><rect codeLine="8" fill="#FEFECE" filter="url(#fogw7f4s8e4ss)" height="73.6094" id="Showing" style="stroke:#A80036;stroke-width:1.5;" width="87" x="263.5" y="128"/><ellipse cx="279.85" cy="144" fill="#ADD1B2" rx="11" ry="11" style="stroke:#A80036;stroke-width:1.0;"/><path d="M282.8188,149.6406 Q282.2406,149.9375 281.6,150.0781 Q280.9594,150.2344 280.2563,150.2344 Q277.7563,150.2344 276.4281,148.5938 Q275.1156,146.9375 275.1156,143.8125 Q275.1156,140.6875 276.4281,139.0313 Q277.7563,137.375 280.2563,137.375 Q280.9594,137.375 281.6,137.5313 Q282.2563,137.6875 282.8188,137.9844 L282.8188,140.7031 Q282.1938,140.125 281.6,139.8594 Q281.0063,139.5781 280.3813,139.5781 Q279.0375,139.5781 278.35,140.6563 Q277.6625,141.7188 277.6625,143.8125 Q277.6625,145.9063 278.35,146.9844 Q279.0375,148.0469 280.3813,148.0469 Q281.0063,148.0469 281.6,147.7813 Q282.1938,147.5 282.8188,146.9219 L282.8188,149.6406 Z " fill="#000000"/><text fill="#000000" font-family="sans-serif" font-size="12" lengthAdjust="spacing" textLength="52" x="294.15" y="148.1543">Showing</text><line style="stroke:#A80036;stroke-width:1.5;" x1="264.5" x2="349.5" y1="160" y2="160"/><rect fill="none" height="6" style="stroke:#C82930;stroke-width:1.0;" width="6" x="271.5" y="168"/><text fill="#000000" font-family="sans-serif" font-size="11" lengthAdjust="spacing" textLength="48" x="283.5" y="174.2104">hour: int</text><rect fill="none" height="6" style="stroke:#C82930;stroke-width:1.0;" width="6" x="271.5" y="180.8047"/><text fill="#000000" font-family="sans-serif" font-size="11" lengthAdjust="spacing" textLength="61" x="283.5" y="187.0151">minute: int</text><line style="stroke:#A80036;stroke-width:1.5;" x1="264.5" x2="349.5" y1="193.6094" y2="193.6094"/><!--MD5=[ac6bea31e13c94c7baa9ad18feb7405e]
class Ticket--><rect codeLine="12" fill="#FEFECE" filter="url(#fogw7f4s8e4ss)" height="60.8047" id="Ticket" style="stroke:#A80036;stroke-width:1.5;" width="76" x="386" y="134.5"/><ellipse cx="404.15" cy="150.5" fill="#ADD1B2" rx="11" ry="11" style="stroke:#A80036;stroke-width:1.0;"/><path d="M407.1188,156.1406 Q406.5406,156.4375 405.9,156.5781 Q405.2594,156.7344 404.5563,156.7344 Q402.0563,156.7344 400.7281,155.0938 Q399.4156,153.4375 399.4156,150.3125 Q399.4156,147.1875 400.7281,145.5313 Q402.0563,143.875 404.5563,143.875 Q405.2594,143.875 405.9,144.0313 Q406.5563,144.1875 407.1188,144.4844 L407.1188,147.2031 Q406.4938,146.625 405.9,146.3594 Q405.3063,146.0781 404.6813,146.0781 Q403.3375,146.0781 402.65,147.1563 Q401.9625,148.2188 401.9625,150.3125 Q401.9625,152.4063 402.65,153.4844 Q403.3375,154.5469 404.6813,154.5469 Q405.3063,154.5469 405.9,154.2813 Q406.4938,154 407.1188,153.4219 L407.1188,156.1406 Z " fill="#000000"/><text fill="#000000" font-family="sans-serif" font-size="12" lengthAdjust="spacing" textLength="37" x="418.85" y="154.6543">Ticket</text><line style="stroke:#A80036;stroke-width:1.5;" x1="387" x2="461" y1="166.5" y2="166.5"/><rect fill="none" height="6" style="stroke:#C82930;stroke-width:1.0;" width="6" x="394" y="174.5"/><text fill="#000000" font-family="sans-serif" font-size="11" lengthAdjust="spacing" textLength="50" x="406" y="180.7104">price: int</text><line style="stroke:#A80036;stroke-width:1.5;" x1="387" x2="461" y1="187.3047" y2="187.3047"/><!--MD5=[eb0e8f8ddfdc21c3fdb48447501fec67]
class Review--><rect codeLine="15" fill="#FEFECE" filter="url(#fogw7f4s8e4ss)" height="48" id="Review" style="stroke:#A80036;stroke-width:1.5;" width="74" x="497" y="141"/><ellipse cx="512" cy="157" fill="#ADD1B2" rx="11" ry="11" style="stroke:#A80036;stroke-width:1.0;"/><path d="M514.9688,162.6406 Q514.3906,162.9375 513.75,163.0781 Q513.1094,163.2344 512.4063,163.2344 Q509.9063,163.2344 508.5781,161.5938 Q507.2656,159.9375 507.2656,156.8125 Q507.2656,153.6875 508.5781,152.0313 Q509.9063,150.375 512.4063,150.375 Q513.1094,150.375 513.75,150.5313 Q514.4063,150.6875 514.9688,150.9844 L514.9688,153.7031 Q514.3438,153.125 513.75,152.8594 Q513.1563,152.5781 512.5313,152.5781 Q511.1875,152.5781 510.5,153.6563 Q509.8125,154.7188 509.8125,156.8125 Q509.8125,158.9063 510.5,159.9844 Q511.1875,161.0469 512.5313,161.0469 Q513.1563,161.0469 513.75,160.7813 Q514.3438,160.5 514.9688,159.9219 L514.9688,162.6406 Z " fill="#000000"/><text fill="#000000" font-family="sans-serif" font-size="12" lengthAdjust="spacing" textLength="42" x="526" y="161.1543">Review</text><line style="stroke:#A80036;stroke-width:1.5;" x1="498" x2="570" y1="173" y2="173"/><line style="stroke:#A80036;stroke-width:1.5;" x1="498" x2="570" y1="181" y2="181"/><!--MD5=[de8e621680ba74c8024493c033325b2c]
reverse link User to CreditCard--><path codeLine="16" d="M256.6831,61.1773 C219.2624,79.0122 167.0927,104.3546 122,128 C114.2055,132.0872 105.9701,136.5695 98.0585,140.9599 " fill="none" id="User-backto-CreditCard" style="stroke:#A80036;stroke-width:1.0;"/><polygon fill="#A80036" points="268.7766,55.43,261.6405,54.3926,257.9383,60.5808,265.0743,61.6182,268.7766,55.43" style="stroke:#A80036;stroke-width:1.0;"/><text fill="#000000" font-family="sans-serif" font-size="13" lengthAdjust="spacing" textLength="8" x="252.9917" y="54.4502">1</text><text fill="#000000" font-family="sans-serif" font-size="13" lengthAdjust="spacing" textLength="23" x="82.8891" y="129.9617">1..*</text><!--MD5=[64d7542aa3a2da46dfc9bcb9f9726d35]
reverse link Showing to Movie--><path codeLine="17" d="M261.8258,212.1213 C245.4676,229.1847 227.6765,247.7426 214.0175,261.9903 " fill="none" id="Showing-backto-Movie" style="stroke:#A80036;stroke-width:1.0;"/><polygon fill="#A80036" points="271.2497,202.2913,264.21,203.8544,262.9453,210.9537,269.985,209.3906,271.2497,202.2913" style="stroke:#A80036;stroke-width:1.0;"/><text fill="#000000" font-family="sans-serif" font-size="13" lengthAdjust="spacing" textLength="8" x="256.9145" y="221.5385">1</text><text fill="#000000" font-family="sans-serif" font-size="13" lengthAdjust="spacing" textLength="8" x="210.8907" y="250.9999">1</text><!--MD5=[f6142c6589bfd7b66e0735fe32b845e9]
reverse link Showing to Theater--><path codeLine="18" d="M307,215.4878 C307,231.5944 307,248.6747 307,261.9903 " fill="none" id="Showing-backto-Theater" style="stroke:#A80036;stroke-width:1.0;"/><polygon fill="#A80036" points="307,202.2913,303,208.2913,307,214.2913,311,208.2913,307,202.2913" style="stroke:#A80036;stroke-width:1.0;"/><text fill="#000000" font-family="sans-serif" font-size="13" lengthAdjust="spacing" textLength="8" x="298.3625" y="221.5385">1</text><text fill="#000000" font-family="sans-serif" font-size="13" lengthAdjust="spacing" textLength="8" x="297.975" y="250.9999">1</text><!--MD5=[9fa5dc39838292a2a66f92271fbd1e97]
reverse link Category to Movie--><path codeLine="19" d="M186.1527,202.2102 C187.2752,221.615 188.6161,244.7922 189.6027,261.8466 " fill="none" id="Category-backto-Movie" style="stroke:#A80036;stroke-width:1.0;"/><polygon fill="#FFFFFF" points="185.3997,189.1953,181.753,195.4164,186.0929,201.1753,189.7396,194.9542,185.3997,189.1953" style="stroke:#A80036;stroke-width:1.0;"/><text fill="#000000" font-family="sans-serif" font-size="13" lengthAdjust="spacing" textLength="23" x="159.9378" y="209.0041">1..*</text><text fill="#000000" font-family="sans-serif" font-size="13" lengthAdjust="spacing" textLength="8" x="180.2196" y="250.8193">1</text><!--MD5=[b107066b0e89bc9b617d508a10dd6413]
reverse link User to Category--><path codeLine="20" d="M268.3709,77.5424 C248.3947,98.2494 224.6645,122.8477 207.4668,140.6746 " fill="none" id="User-backto-Category" style="stroke:#A80036;stroke-width:1.0;"/><polygon fill="#FFFFFF" points="277.5384,68.0394,270.4939,69.5804,269.2069,76.6757,276.2514,75.1347,277.5384,68.0394" style="stroke:#A80036;stroke-width:1.0;"/><text fill="#000000" font-family="sans-serif" font-size="13" lengthAdjust="spacing" textLength="8" x="262.6369" y="87.9858">1</text><text fill="#000000" font-family="sans-serif" font-size="13" lengthAdjust="spacing" textLength="7" x="205.3337" y="130.0002">*</text><!--MD5=[f4ac5664b5dc62c5f76e267561a42d6b]
reverse link User to Ticket--><path codeLine="21" d="M344.0098,77.8312 C360.7657,96.0908 380.2535,117.3276 395.7988,134.2679 " fill="none" id="User-backto-Ticket" style="stroke:#A80036;stroke-width:1.0;"/><polygon fill="#FFFFFF" points="335.0244,68.0394,336.1339,75.1646,343.1378,76.881,342.0283,69.7557,335.0244,68.0394" style="stroke:#A80036;stroke-width:1.0;"/><text fill="#000000" font-family="sans-serif" font-size="13" lengthAdjust="spacing" textLength="8" x="331.9794" y="87.9858">1</text><text fill="#000000" font-family="sans-serif" font-size="13" lengthAdjust="spacing" textLength="7" x="382.2604" y="123.4833">*</text><!--MD5=[76c9b95f8cc82b37cd2cd126550f64e7]
reverse link User to Review--><path codeLine="22" d="M356.9991,61.6805 C392.0201,79.0923 439.5922,103.7045 480,128 C486.6229,131.9821 493.5375,136.4593 500.1215,140.8876 " fill="none" id="User-backto-Review" style="stroke:#A80036;stroke-width:1.0;"/><polygon fill="#FFFFFF" points="345.1675,55.8343,348.7747,62.0783,355.9258,61.1502,352.3186,54.9061,345.1675,55.8343" style="stroke:#A80036;stroke-width:1.0;"/><text fill="#000000" font-family="sans-serif" font-size="13" lengthAdjust="spacing" textLength="23" x="353.0833" y="54.6541">1..*</text><text fill="#000000" font-family="sans-serif" font-size="13" lengthAdjust="spacing" textLength="7" x="483.5433" y="129.8708">*</text><!--MD5=[e2ade843c46f776f999c74f2059298d1]
reverse link User to Showing--><path codeLine="23" d="M307,73.2168 C307,90.2683 307,110.6609 307,127.8888 " fill="none" id="User-backto-Showing" style="stroke:#A80036;stroke-width:1.0;stroke-dasharray:7.0,7.0;"/><polygon fill="#A80036" points="307,68.0394,303,77.0394,307,73.0394,311,77.0394,307,68.0394" style="stroke:#A80036;stroke-width:1.0;"/><text fill="#000000" font-family="sans-serif" font-size="13" lengthAdjust="spacing" textLength="8" x="298.175" y="87.9858">1</text><text fill="#000000" font-family="sans-serif" font-size="13" lengthAdjust="spacing" textLength="7" x="299.3766" y="117.0559">*</text><!--MD5=[994c6e0f1179432137de3559bca4d461]
@startuml
class User{
  - point: int
}
class CreditCard
class Movie
class Theater
class Category
class Showing{
  - hour: int
  - minute: int
}
class Ticket{
  - price: int
}
class Review
User"1" *- - "1..*"CreditCard
Showing"1" *- - "1"Movie
Showing"1" *- - "1"Theater
Category"1..*" o- - "1"Movie
User"1" o- - "*"Category
User"1" o- - "*"Ticket
User"1..*" o- - "*"Review
User"1" <.. "*"Showing
@enduml

PlantUML version 1.2021.7(Sun May 23 12:40:07 UTC 2021)
(GPL source distribution)
Java Runtime: OpenJDK Runtime Environment
JVM: OpenJDK 64-Bit Server VM
Default Encoding: UTF-8
Language: en
Country: US
--></g></svg>